<svg xmlns="http://www.w3.org/2000/svg" viewBox="0 0 512 512" style="height: 512px; width: 512px;"><polygon points="456.15,415.61,330.05,409.77,256,512,181.95,409.77,55.85,415.61,89.61,293.98,6.42,199.03,122.57,149.59,144.93,25.35,256,85.33,367.07,25.35,389.43,149.59,505.58,199.03,422.39,293.98" fill="#000000" opacity="0"></polygon><g class="" transform="translate(0,0)" style="touch-action: none;"><path fill="#880e4f" d="M201 16c-15 0-20 3.38-20 20v15h-45c-29.547 0-35 5.453-35 35v375c0 29.547 5.453 35 35 35h240c29.547 0 35-5.453 35-35V86c0-29.547-5.453-35-35-35h-45V36c0-16.62-5-20-20-20H201zm-48.094 69.813c4.666.02 10.594.187 18.094.187h170c40 0 35-5 35 35v305c0 40 5 35-35 35H171c-40 0-35 5-35-35V121c0-32.5-3.31-35.283 16.906-35.188zM171 236c-5.54 0-10 4.46-10 10v50c0 5.54 4.46 10 10 10h170c5.54 0 10-4.46 10-10v-50c0-5.54-4.46-10-10-10H171z"></path></g><!-- react-empty: 6 --></svg>